M48
METRIC,LZ,000.000
;FILE_FORMAT=3:3
;TYPE=PLATED
;Layer: PTH_Through_Via
;EasyEDA v6.5.34, 2023-08-01 23:06:14
;37820599d03b44ba85b54b625c5d4239,e19817772a2549008f3c800b4464b236,10
;Gerber Generator version 0.2
;Holesize 1 = 0.306 mm
T01C0.306
%
G05
G90
T01
X019777Y053342
X-023748Y039883
X-023748Y015538
X-023748Y-025969
X-023748Y-008806
X-017027Y-057138
X-018984Y-074087
X-005080Y093109
X019777Y092791
X019777Y077628
X013891Y-009854
X-023748Y053195
X-023748Y077539
X012782Y-057285
X021725Y056392
X021725Y032203
X021725Y-055484
X027004Y-021231
X019679Y-040794
X-022265Y077604
X004884Y-051247
X001619Y074924
X-000566Y072740
M30
