M48
METRIC,LZ,000.000
;FILE_FORMAT=3:3
;TYPE=PLATED
;Layer: PTH_Through
;EasyEDA v6.5.34, 2023-08-01 23:06:14
;37820599d03b44ba85b54b625c5d4239,e19817772a2549008f3c800b4464b236,10
;Gerber Generator version 0.2
;Holesize 1 = 0.306 mm
T01C0.306
;Holesize 2 = 0.701 mm
T02C0.701
;Holesize 3 = 0.915 mm
T03C0.915
;Holesize 4 = 1.052 mm
T04C1.052
%
G05
G90
T01
X019777Y053342
X-023748Y039883
X-023748Y015538
X-023748Y-025969
X-023748Y-008806
X-017027Y-057138
X-018984Y-074087
X-005080Y093109
X019777Y092791
X019777Y077628
X013891Y-009854
X-023748Y053195
X-023748Y077539
X012782Y-057285
X021725Y056392
X021725Y032203
X021725Y-055484
X027004Y-021231
X019679Y-040794
X-022265Y077604
X004884Y-051247
X001619Y074924
X-000566Y072740
T02
X-006787Y-050310
X-008057Y-050310
X-002045Y-050310
X-003315Y-050310
X002696Y-050310
X001426Y-050310
X003556Y065024
X002286Y065024
X-001914Y047435
X-003184Y047435
X-020193Y091190
X-021463Y091190
X-020193Y066716
X-021463Y066716
X-020193Y042243
X-021463Y042243
X-020193Y017769
X-021463Y017769
X-020193Y-006705
X-021463Y-006705
X-020193Y-031179
X-021463Y-031179
X-020193Y-055653
X-021463Y-055653
X-020193Y-080127
X-021463Y-080127
X017526Y097652
X016256Y097652
X017526Y073224
X016256Y073224
X017526Y048795
X016256Y048795
X017526Y024367
X016256Y024367
X017526Y-000061
X016256Y-000061
X017526Y-024490
X016256Y-024490
X017526Y-048918
X016256Y-048918
X017526Y-073346
X016256Y-073346
X007437Y-050310
X006167Y-050310
X002912Y052435
X001642Y052435
X-020193Y097309
X-021463Y097309
X-020193Y072835
X-021463Y072835
X-020193Y048361
X-021463Y048361
X-020193Y023887
X-021463Y023887
X-020193Y-000587
X-021463Y-000587
X-020193Y-025061
X-021463Y-025061
X-020193Y-049534
X-021463Y-049534
X-020193Y-074008
X-021463Y-074008
X017526Y091545
X016256Y091545
X017526Y067117
X016256Y067117
X017526Y042688
X016256Y042688
X017526Y018260
X016256Y018260
X017526Y-006168
X016256Y-006168
X017526Y-030597
X016256Y-030597
X017526Y-055025
X016256Y-055025
X017526Y-079453
X016256Y-079453
X-001787Y052388
X-003057Y052388
X-020193Y103427
X-021463Y103427
X-020193Y078953
X-021463Y078953
X-020193Y054479
X-021463Y054479
X-020193Y030006
X-021463Y030006
X-020193Y005532
X-021463Y005532
X-020193Y-018942
X-021463Y-018942
X-020193Y-043416
X-021463Y-043416
X-020193Y-067890
X-021463Y-067890
X017526Y085438
X016256Y085438
X017526Y061009
X016256Y061009
X017526Y036581
X016256Y036581
X017526Y012153
X016256Y012153
X017526Y-012275
X016256Y-012275
X017526Y-036704
X016256Y-036704
X017526Y-061132
X016256Y-061132
X017526Y-085560
X016256Y-085560
X002912Y047435
X001642Y047435
X-020193Y085072
X-021463Y085072
X-020193Y060598
X-021463Y060598
X-020193Y036124
X-021463Y036124
X-020193Y011650
X-021463Y011650
X-020193Y-012824
X-021463Y-012824
X-020193Y-037298
X-021463Y-037298
X-020193Y-061771
X-021463Y-061771
X-020193Y-086245
X-021463Y-086245
X017526Y103759
X016256Y103759
X017526Y079331
X016256Y079331
X017526Y054902
X016256Y054902
X017526Y030474
X016256Y030474
X017526Y006046
X016256Y006046
X017526Y-018383
X016256Y-018383
X017526Y-042811
X016256Y-042811
X017526Y-067239
X016256Y-067239
T03
X010160Y099441
X007620Y099441
X005080Y099441
X002540Y099441
X000000Y099441
X-002540Y099441
X-005080Y099441
X-007620Y099441
X-010160Y099441
X-010597Y-054945
X-008057Y-054945
X-005517Y-054945
X-002977Y-054945
X-000437Y-054945
X002103Y-054945
X004643Y-054945
X007183Y-054945
X-029132Y084963
X-031672Y084963
X-034339Y084963
X-036879Y084963
X-039419Y084963
X-041832Y084963
X-044499Y084963
X-044499Y103632
X-041832Y103632
X-039419Y103632
X-036879Y103632
X-034339Y103632
X-031672Y103632
X-029132Y103632
X-029132Y060570
X-031672Y060570
X-034339Y060570
X-036879Y060570
X-039419Y060570
X-041832Y060570
X-044499Y060570
X-044499Y079239
X-041832Y079239
X-039419Y079239
X-036879Y079239
X-034339Y079239
X-031672Y079239
X-029132Y079239
X-029132Y036177
X-031672Y036177
X-034339Y036177
X-036879Y036177
X-039419Y036177
X-041832Y036177
X-044499Y036177
X-044499Y054846
X-041832Y054846
X-039419Y054846
X-036879Y054846
X-034339Y054846
X-031672Y054846
X-029132Y054846
X-029132Y011784
X-031672Y011784
X-034339Y011784
X-036879Y011784
X-039419Y011784
X-041832Y011784
X-044499Y011784
X-044499Y030453
X-041832Y030453
X-039419Y030453
X-036879Y030453
X-034339Y030453
X-031672Y030453
X-029132Y030453
X-029132Y-012609
X-031672Y-012609
X-034339Y-012609
X-036879Y-012609
X-039419Y-012609
X-041832Y-012609
X-044499Y-012609
X-044499Y006060
X-041832Y006060
X-039419Y006060
X-036879Y006060
X-034339Y006060
X-031672Y006060
X-029132Y006060
X-029132Y-037002
X-031672Y-037002
X-034339Y-037002
X-036879Y-037002
X-039419Y-037002
X-041832Y-037002
X-044499Y-037002
X-044499Y-018333
X-041832Y-018333
X-039419Y-018333
X-036879Y-018333
X-034339Y-018333
X-031672Y-018333
X-029132Y-018333
X-029132Y-061395
X-031672Y-061395
X-034339Y-061395
X-036879Y-061395
X-039419Y-061395
X-041832Y-061395
X-044499Y-061395
X-044499Y-042726
X-041832Y-042726
X-039419Y-042726
X-036879Y-042726
X-034339Y-042726
X-031672Y-042726
X-029132Y-042726
X-029132Y-085788
X-031672Y-085788
X-034339Y-085788
X-036879Y-085788
X-039419Y-085788
X-041832Y-085788
X-044499Y-085788
X-044499Y-067119
X-041832Y-067119
X-039419Y-067119
X-036879Y-067119
X-034339Y-067119
X-031672Y-067119
X-029132Y-067119
X027846Y103378
X030386Y103378
X033053Y103378
X035593Y103378
X038133Y103378
X040546Y103378
X043213Y103378
X043213Y084709
X040546Y084709
X038133Y084709
X035593Y084709
X033053Y084709
X030386Y084709
X027846Y084709
X027846Y079021
X030386Y079021
X033053Y079021
X035593Y079021
X038133Y079021
X040546Y079021
X043213Y079021
X043213Y060352
X040546Y060352
X038133Y060352
X035593Y060352
X033053Y060352
X030386Y060352
X027846Y060352
X027846Y054664
X030386Y054664
X033053Y054664
X035593Y054664
X038133Y054664
X040546Y054664
X043213Y054664
X043213Y035995
X040546Y035995
X038133Y035995
X035593Y035995
X033053Y035995
X030386Y035995
X027846Y035995
X027846Y030308
X030386Y030308
X033053Y030308
X035593Y030308
X038133Y030308
X040546Y030308
X043213Y030308
X043213Y011639
X040546Y011639
X038133Y011639
X035593Y011639
X033053Y011639
X030386Y011639
X027846Y011639
X027846Y005951
X030386Y005951
X033053Y005951
X035593Y005951
X038133Y005951
X040546Y005951
X043213Y005951
X043213Y-012718
X040546Y-012718
X038133Y-012718
X035593Y-012718
X033053Y-012718
X030386Y-012718
X027846Y-012718
X027846Y-018406
X030386Y-018406
X033053Y-018406
X035593Y-018406
X038133Y-018406
X040546Y-018406
X043213Y-018406
X043213Y-037075
X040546Y-037075
X038133Y-037075
X035593Y-037075
X033053Y-037075
X030386Y-037075
X027846Y-037075
X027846Y-042763
X030386Y-042763
X033053Y-042763
X035593Y-042763
X038133Y-042763
X040546Y-042763
X043213Y-042763
X043213Y-061432
X040546Y-061432
X038133Y-061432
X035593Y-061432
X033053Y-061432
X030386Y-061432
X027846Y-061432
X027846Y-067120
X030386Y-067120
X033053Y-067120
X035593Y-067120
X038133Y-067120
X040546Y-067120
X043213Y-067120
X043213Y-085789
X040546Y-085789
X038133Y-085789
X035593Y-085789
X033053Y-085789
X030386Y-085789
X027846Y-085789
T04
X-010296Y003747
X-010296Y006287
X-010296Y008827
X-010296Y011367
X-010296Y013907
X-010296Y016447
X-010296Y018987
X-010296Y021527
X-010296Y024067
X-010296Y026607
X-010296Y029147
X-010296Y031687
X010024Y003747
X010024Y006287
X010024Y008827
X010024Y011367
X010024Y018987
X010024Y021527
X010024Y024067
X010024Y026607
X010024Y029147
X010024Y031687
X010024Y001207
X010024Y-001333
X010024Y-003873
X010024Y-006413
X010024Y013907
X010024Y016447
M30
